# xmcd
#
# Track frame offsets: 
#        150
#        18147
#        35630
#        55274
#        70522
#        88857
#        106196
#        125373
#        142895
#        159323
#        172876
#        188951
#        210623
#        230427
#        242299
#        260775
#        277423
#        294682
#        314713
#        335099
#
# Disc length: 4691 seconds
#
# Revision: 4
# Processed by: cddbd v1.5.2PL0 Copyright (c) Steve Scherf et al.
# Submitted via: ExactAudioCopy v0.99pb5
#
DISCID=27125114
DTITLE=Various Artist - Essential (Soul love) - CD 1
DYEAR=2010
DGENRE=Soul
TTITLE0=Marvin Gaye - Sexual healing
TTITLE1=Billy Ocean - Suddenly
TTITLE2=Dee C. Lee - See the day
TTITLE3=Lemar - It's not that easy
TTITLE4=Christina Aguilera - Hurt
TTITLE5=Alicia Keys - If I ain't got you
TTITLE6=Jermaine Jackson - Do what you do
TTITLE7=Gladys Knight and The Pips - Midnight train to Georgia
TTITLE8=Evelyn ''Champagne'' King - Love comes down
TTITLE9=Boz Scaggs - What can I say
TTITLE10=Harold Melvin and The Blue Notes - The love I lost
TTITLE11=Cheryl Lynn - All my lovin'
TTITLE12=Deborah Cox - Who do you love
TTITLE13=MFSB feat. The Three Degrees - Love is the message
TTITLE14=Gregory Abbott - Shake you down
TTITLE15=Emotions - Best of my love
TTITLE16=Phyllis Hyman - You know how to love me
TTITLE17=Earth, Wind and Fire - After the love has gone
TTITLE18=Terence Trent D'Arby - Sign your name
TTITLE19=Luther Vandross - So amazing
EXTD=Sony Music 886976452025
EXTT0=
EXTT1=
EXTT2=
EXTT3=
EXTT4=
EXTT5=
EXTT6=
EXTT7=
EXTT8=
EXTT9=
EXTT10=
EXTT11=
EXTT12=
EXTT13=
EXTT14=
EXTT15=
EXTT16=
EXTT17=
EXTT18=
EXTT19=
PLAYORDER=
